<svg xmlns="http://www.w3.org/2000/svg" version="1.1" xmlns:xlink="http://www.w3.org/1999/xlink" width="200" height="200"><svg xmlns="http://www.w3.org/2000/svg" version="1.1" xmlns:xlink="http://www.w3.org/1999/xlink" width="200" height="200"><svg xmlns="http://www.w3.org/2000/svg" version="1.1" xmlns:xlink="http://www.w3.org/1999/xlink" viewBox="0 0 200 200"><rect width="200" height="200" fill="url('#gradient')"></rect><defs><linearGradient id="gradient" gradientTransform="rotate(45 0.5 0.5)"><stop offset="0%" stop-color="#f4d005"></stop><stop offset="100%" stop-color="#f9de4c"></stop></linearGradient></defs><g><g fill="#000000" transform="matrix(4.412736413694039,0,0,4.412736413694039,5.25882375833946,130.9350017911086)" stroke="#000000" stroke-width="0.2"><path d="M12.95-14.22L12.95 0L9.54 0L4.50-8.85L4.50 0L1.07 0L1.07-14.22L4.50-14.22L9.53-5.37L9.53-14.22L12.95-14.22ZM20.08 0.20L20.08 0.20Q17.65 0.20 16.14-1.25Q14.64-2.71 14.64-5.03L14.64-5.03L14.64-5.30Q14.64-6.92 15.24-8.16Q15.84-9.40 16.99-10.08Q18.14-10.76 19.73-10.76L19.73-10.76Q21.95-10.76 23.24-9.38Q24.53-8.00 24.53-5.53L24.53-5.53L24.53-4.25L17.99-4.25Q18.16-3.36 18.76-2.85Q19.36-2.34 20.30-2.34L20.30-2.34Q21.87-2.34 22.74-3.44L22.74-3.44L24.25-1.66Q23.63-0.81 22.50-0.31Q21.38 0.20 20.08 0.20ZM19.71-8.22L19.71-8.22Q18.26-8.22 17.99-6.31L17.99-6.31L21.31-6.31L21.31-6.56Q21.33-7.35 20.91-7.79Q20.49-8.22 19.71-8.22ZM28.65-10.57L30.14-7.66L31.67-10.57L35.09-10.57L32.30-5.42L35.22 0L31.79 0L30.13-3.13L28.50 0L25.04 0L27.97-5.42L25.20-10.57L28.65-10.57ZM36.69-13.19L39.98-13.19L39.98-10.57L41.72-10.57L41.72-8.28L39.98-8.28L39.98-3.45Q39.98-2.85 40.20-2.62Q40.41-2.38 41.04-2.38L41.04-2.38Q41.53-2.38 41.87-2.44L41.87-2.44L41.87-0.09Q40.98 0.20 40.01 0.20L40.01 0.20Q38.31 0.20 37.50-0.61Q36.69-1.41 36.69-3.04L36.69-3.04L36.69-8.28L35.34-8.28L35.34-10.57L36.69-10.57L36.69-13.19Z"></path></g></g></svg></svg><style>@media (prefers-color-scheme: light) { :root { filter: none; } }
@media (prefers-color-scheme: dark) { :root { filter: none; } }
</style></svg>